<svg data-v-fde0c5aa="" xmlns="http://www.w3.org/2000/svg" viewBox="0 0 300 300" class="iconAbove"><!----><defs data-v-fde0c5aa=""><linearGradient data-v-fde0c5aa="" gradientTransform="rotate(25)" id="1aa426ee-0b59-4fcb-a9cb-1c883649e186" x1="0%" y1="0%" x2="100%" y2="0%"><stop data-v-fde0c5aa="" offset="0%" stop-color="#326D8A" stop-opacity="1"></stop><stop data-v-fde0c5aa="" offset="100%" stop-color="#D468D7" stop-opacity="1"></stop></linearGradient></defs><rect data-v-fde0c5aa="" fill="url(#1aa426ee-0b59-4fcb-a9cb-1c883649e186)" x="0" y="0" width="300px" height="300px" class="logo-background-square"></rect><defs data-v-fde0c5aa=""><!----></defs><g data-v-fde0c5aa="" id="99db3aeb-c3fc-47ff-8091-36a11269abdd" fill="#ffffff" transform="matrix(5.8519018279122506,0,0,5.8519018279122506,17.074049086043875,161.83817316785064)"><path d="M0.77 14.01Q0.67 14.01 0.67 13.85L0.67 13.85Q0.67 13.78 0.70 13.76Q0.73 13.73 0.81 13.73L0.81 13.73L1.22 13.73Q1.34 13.73 1.40 13.64Q1.46 13.55 1.46 13.41L1.46 13.41L1.46 5.07Q1.46 4.90 1.39 4.81Q1.32 4.72 1.22 4.72L1.22 4.72L0.67 4.72Q0.50 4.72 0.50 4.56L0.50 4.56Q0.50 4.48 0.55 4.45Q0.59 4.41 0.69 4.41L0.69 4.41L2.27 4.41Q2.48 4.41 2.48 4.62L2.48 4.62L2.48 13.51Q2.48 13.64 2.52 13.67Q2.56 13.71 2.66 13.71L2.66 13.71L3.12 13.71Q3.26 13.71 3.26 13.85L3.26 13.85Q3.26 14.01 3.12 14.01L3.12 14.01L0.77 14.01ZM5.91 14.20Q5.11 14.20 4.70 13.75Q4.28 13.30 4.28 12.67L4.28 12.67Q4.28 12.00 4.77 11.56Q5.25 11.13 5.99 10.93L5.99 10.93Q6.71 10.71 7.52 10.71L7.52 10.71L7.71 10.72L7.71 10.46Q7.71 9.88 7.64 9.49Q7.57 9.10 7.29 8.83Q7.01 8.55 6.44 8.55L6.44 8.55Q6.02 8.55 5.89 8.67Q5.77 8.78 5.77 8.90L5.77 8.90Q5.77 8.97 5.84 9.13Q5.91 9.28 5.91 9.35L5.91 9.35Q5.91 9.66 5.74 9.81L5.74 9.81Q5.59 10.00 5.31 10.00L5.31 10.00Q5.05 10.00 4.86 9.80L4.86 9.80Q4.76 9.69 4.72 9.59Q4.68 9.49 4.68 9.37L4.68 9.37Q4.68 9.10 4.86 8.88L4.86 8.88Q5.15 8.54 5.63 8.43Q6.12 8.32 6.55 8.32L6.55 8.32Q7.22 8.32 7.67 8.47Q8.12 8.62 8.39 8.96L8.39 8.96Q8.61 9.25 8.66 9.59Q8.71 9.93 8.71 10.72L8.71 10.72L8.71 12.89Q8.71 13.66 9.11 13.66L9.11 13.66Q9.34 13.66 9.56 13.44L9.56 13.44Q9.59 13.43 9.60 13.41Q9.62 13.38 9.65 13.38L9.65 13.38Q9.73 13.38 9.73 13.48L9.73 13.48Q9.73 13.68 9.42 13.91Q9.10 14.14 8.81 14.14L8.81 14.14Q8.44 14.14 8.17 13.87Q7.90 13.59 7.76 13.19L7.76 13.19Q7.71 13.19 7.69 13.17Q7.67 13.16 7.66 13.19L7.66 13.19Q7.06 14.20 5.91 14.20L5.91 14.20ZM6.31 13.71Q6.69 13.71 7.01 13.51Q7.34 13.31 7.53 13.03Q7.71 12.75 7.71 12.52L7.71 12.52L7.71 10.99Q7.31 10.99 6.85 11.05Q6.38 11.12 6.08 11.27L6.08 11.27Q5.60 11.51 5.45 11.91Q5.31 12.31 5.31 12.63L5.31 12.63Q5.31 12.99 5.53 13.35Q5.75 13.71 6.31 13.71L6.31 13.71ZM12.52 14.14Q12.43 14.14 12.37 14.08Q12.31 14.01 12.26 13.93L12.26 13.93L10.60 8.65L10.15 8.65Q10.01 8.65 10.01 8.51L10.01 8.51Q10.01 8.36 10.18 8.36L10.18 8.36L12.26 8.36Q12.40 8.36 12.40 8.51L12.40 8.51Q12.40 8.65 12.26 8.65L12.26 8.65L11.55 8.65L12.85 13.01Q12.88 13.08 12.92 13.08Q12.96 13.08 12.98 13.01L12.98 13.01L13.97 9.42Q13.99 9.37 13.99 9.27L13.99 9.27Q13.99 9.03 13.84 8.84Q13.69 8.65 13.51 8.65L13.51 8.65L13.31 8.65Q13.17 8.65 13.17 8.51L13.17 8.51Q13.17 8.36 13.34 8.36L13.34 8.36L15.46 8.36Q15.60 8.36 15.60 8.51L15.60 8.51Q15.60 8.65 15.46 8.65L15.46 8.65L14.94 8.65L16.23 13.01Q16.25 13.08 16.30 13.08Q16.35 13.08 16.38 13.01L16.38 13.01L17.32 9.42Q17.33 9.37 17.33 9.27L17.33 9.27Q17.33 9.03 17.20 8.84Q17.07 8.65 16.87 8.65L16.87 8.65L16.52 8.65Q16.38 8.65 16.38 8.51L16.38 8.51Q16.38 8.36 16.52 8.36L16.52 8.36L18.30 8.36Q18.44 8.36 18.44 8.51L18.44 8.51Q18.44 8.65 18.30 8.65L18.30 8.65L18.21 8.65Q17.88 8.65 17.74 9.02L17.74 9.02L16.32 13.93Q16.30 14.03 16.23 14.08Q16.16 14.14 16.09 14.14L16.09 14.14L15.90 14.14Q15.72 14.14 15.68 13.93L15.68 13.93L14.25 9.46L12.91 13.93Q12.87 14.14 12.71 14.14L12.71 14.14L12.52 14.14ZM19.31 14.01Q19.25 14.01 19.23 13.97Q19.21 13.93 19.21 13.85L19.21 13.85Q19.21 13.78 19.24 13.76Q19.26 13.73 19.35 13.73L19.35 13.73L19.63 13.73Q19.75 13.73 19.82 13.64Q19.88 13.54 19.88 13.41L19.88 13.41L19.88 9.00Q19.88 8.85 19.81 8.77Q19.74 8.69 19.63 8.69L19.63 8.69L19.21 8.69Q19.04 8.69 19.04 8.54L19.04 8.54Q19.04 8.36 19.22 8.36L19.22 8.36L20.69 8.36Q20.80 8.36 20.86 8.41Q20.92 8.46 20.92 8.58L20.92 8.58L20.92 9.32Q20.92 9.42 20.95 9.46Q20.99 9.49 21.06 9.39L21.06 9.39Q21.08 9.37 21.27 9.06Q21.45 8.75 21.87 8.50Q22.29 8.25 22.79 8.25L22.79 8.25Q23.41 8.25 23.75 8.56Q24.09 8.88 24.23 9.35L24.23 9.35Q24.28 9.42 24.32 9.44Q24.36 9.46 24.42 9.39L24.42 9.39Q24.43 9.37 24.61 9.07Q24.79 8.76 25.22 8.51Q25.65 8.25 26.17 8.25L26.17 8.25Q26.95 8.25 27.30 8.76Q27.65 9.28 27.65 9.87L27.65 9.87L27.65 13.51Q27.65 13.64 27.71 13.67Q27.76 13.71 27.87 13.71L27.87 13.71L28.24 13.71Q28.38 13.71 28.38 13.85L28.38 13.85Q28.38 14.01 28.24 14.01L28.24 14.01L26.08 14.01Q25.96 14.01 25.96 13.85L25.96 13.85Q25.96 13.78 25.99 13.76Q26.03 13.73 26.11 13.73L26.11 13.73L26.39 13.73Q26.66 13.73 26.66 13.51L26.66 13.51L26.66 9.91Q26.66 9.44 26.38 9.14Q26.11 8.83 25.72 8.83L25.72 8.83Q25.41 8.83 25.10 9.02Q24.78 9.21 24.55 9.67Q24.32 10.14 24.32 10.91L24.32 10.91L24.32 13.51Q24.32 13.64 24.35 13.67Q24.39 13.71 24.49 13.71L24.49 13.71L24.93 13.71Q24.99 13.71 25.03 13.74Q25.07 13.78 25.07 13.85L25.07 13.85Q25.07 14.01 24.93 14.01L24.93 14.01L22.69 14.01Q22.64 14.01 22.62 13.97Q22.61 13.92 22.61 13.85L22.61 13.85Q22.61 13.76 22.62 13.75Q22.64 13.73 22.72 13.73L22.72 13.73L23.04 13.73Q23.18 13.73 23.23 13.68Q23.28 13.62 23.28 13.51L23.28 13.51L23.28 9.91Q23.28 9.44 23.02 9.14Q22.75 8.83 22.34 8.83L22.34 8.83Q22.04 8.83 21.71 9.02Q21.39 9.21 21.15 9.67Q20.92 10.14 20.92 10.91L20.92 10.91L20.92 13.51Q20.92 13.64 20.96 13.67Q21 13.71 21.10 13.71L21.10 13.71L21.53 13.71Q21.66 13.71 21.66 13.85L21.66 13.85Q21.66 14.01 21.52 14.01L21.52 14.01L19.31 14.01ZM31.04 14.20Q30.24 14.20 29.83 13.75Q29.41 13.30 29.41 12.67L29.41 12.67Q29.41 12.00 29.90 11.56Q30.38 11.13 31.12 10.93L31.12 10.93Q31.84 10.71 32.65 10.71L32.65 10.71L32.84 10.72L32.84 10.46Q32.84 9.88 32.77 9.49Q32.70 9.10 32.42 8.83Q32.14 8.55 31.57 8.55L31.57 8.55Q31.15 8.55 31.02 8.67Q30.90 8.78 30.90 8.90L30.90 8.90Q30.90 8.97 30.97 9.13Q31.04 9.28 31.04 9.35L31.04 9.35Q31.04 9.66 30.87 9.81L30.87 9.81Q30.72 10.00 30.44 10.00L30.44 10.00Q30.18 10.00 29.99 9.80L29.99 9.80Q29.89 9.69 29.85 9.59Q29.81 9.49 29.81 9.37L29.81 9.37Q29.81 9.10 29.99 8.88L29.99 8.88Q30.28 8.54 30.77 8.43Q31.25 8.32 31.68 8.32L31.68 8.32Q32.35 8.32 32.80 8.47Q33.25 8.62 33.52 8.96L33.52 8.96Q33.74 9.25 33.79 9.59Q33.84 9.93 33.84 10.72L33.84 10.72L33.84 12.89Q33.84 13.66 34.24 13.66L34.24 13.66Q34.47 13.66 34.69 13.44L34.69 13.44Q34.72 13.43 34.73 13.41Q34.75 13.38 34.78 13.38L34.78 13.38Q34.86 13.38 34.86 13.48L34.86 13.48Q34.86 13.68 34.55 13.91Q34.23 14.14 33.94 14.14L33.94 14.14Q33.57 14.14 33.30 13.87Q33.03 13.59 32.89 13.19L32.89 13.19Q32.84 13.19 32.82 13.17Q32.80 13.16 32.79 13.19L32.79 13.19Q32.19 14.20 31.04 14.20L31.04 14.20ZM31.44 13.71Q31.82 13.71 32.14 13.51Q32.47 13.31 32.66 13.03Q32.84 12.75 32.84 12.52L32.84 12.52L32.84 10.99Q32.44 10.99 31.98 11.05Q31.51 11.12 31.21 11.27L31.21 11.27Q30.73 11.51 30.58 11.91Q30.44 12.31 30.44 12.63L30.44 12.63Q30.44 12.99 30.66 13.35Q30.88 13.71 31.44 13.71L31.44 13.71ZM37.39 14.14Q36.96 14.14 36.55 13.93Q36.13 13.72 36.13 13.10L36.13 13.10L36.13 8.72L35.36 8.72Q35.31 8.72 35.27 8.68Q35.24 8.64 35.24 8.58L35.24 8.58Q35.24 8.47 35.35 8.47L35.35 8.47Q35.92 8.33 36.30 7.85Q36.68 7.36 36.68 6.38L36.68 6.38Q36.68 6.31 36.73 6.26Q36.78 6.20 36.85 6.20L36.85 6.20L36.97 6.20Q37.04 6.20 37.09 6.26Q37.13 6.31 37.13 6.38L37.13 6.38L37.13 8.36L38.74 8.36Q38.84 8.36 38.84 8.50L38.84 8.50L38.84 8.58Q38.84 8.72 38.74 8.72L38.74 8.72L37.13 8.72L37.13 12.74Q37.13 13.26 37.34 13.43Q37.56 13.59 37.88 13.59L37.88 13.59Q38.40 13.59 38.82 12.94L38.82 12.94Q38.89 12.81 38.93 12.81L38.93 12.81Q39.12 12.81 39.12 12.96L39.12 12.96Q39.12 13.03 39.07 13.10L39.07 13.10Q38.74 13.73 38.30 13.94Q37.87 14.14 37.39 14.14L37.39 14.14ZM42.64 14.14Q41.94 14.14 41.29 13.82Q40.64 13.50 40.22 12.85Q39.80 12.19 39.80 11.27L39.80 11.27Q39.80 10.36 40.21 9.67Q40.61 8.99 41.24 8.62Q41.86 8.25 42.50 8.25L42.50 8.25Q43.32 8.25 43.85 8.65Q44.38 9.04 44.63 9.62Q44.88 10.19 44.88 10.68L44.88 10.68Q44.88 11.02 44.62 11.02L44.62 11.02L41.69 11.02Q41.30 11.02 41.13 11.07Q40.96 11.12 40.96 11.31L40.96 11.31Q40.96 12.42 41.37 13.13Q41.78 13.83 42.87 13.83L42.87 13.83L42.91 13.83Q43.37 13.82 43.80 13.57Q44.23 13.33 44.67 12.67L44.67 12.67Q44.72 12.61 44.80 12.61L44.80 12.61Q44.87 12.61 44.91 12.66Q44.95 12.70 44.91 12.78L44.91 12.78Q44.86 12.94 44.59 13.26Q44.32 13.58 43.83 13.86Q43.33 14.14 42.64 14.14L42.64 14.14ZM40.98 10.67L43.48 10.67Q43.69 10.67 43.73 10.63Q43.76 10.60 43.76 10.42L43.76 10.42Q43.76 9.81 43.55 9.16Q43.33 8.50 42.59 8.50L42.59 8.50Q42 8.50 41.54 9.04Q41.08 9.59 40.98 10.67L40.98 10.67Z"></path></g><defs data-v-fde0c5aa=""><!----></defs><g data-v-fde0c5aa="" id="5e3e2977-0ae5-469d-a6cb-2b2bb3d4c16c" stroke="none" fill="#ffffff" transform="matrix(3.524895371985305,0,0,3.524895371985305,61.877904798155214,24.23256308755745)"><path clip-rule="evenodd" d="M16.021 24.659l.568-.732 9.376 7.24-.521.773-9.423-7.281zM7.5 38.034h18.397c2.541 0 3.16 1.131 4.625 2.031l1.864 1.129-30.982.059 1.467-1.188c1.184-.957 2.089-2.031 4.629-2.031zm3.047-4.174h12.415c1.75 0 2.145 1.072 3.103 1.977l1.242 1.127-20.88.111 1.017-1.238c.79-.961 1.41-1.977 3.103-1.977zm36.172 1.803c.902-1.127 1.694-1.918 1.862-1.803.115.168-.45 1.127-1.296 2.258-.849 1.068-1.636 1.861-1.806 1.748-.17-.113.394-1.072 1.24-2.203zM24.597 9.538c.452-.566 1.411-.566 2.146 0l10.214 7.84c.734.623 1.017 1.527.566 2.09-.454.564-1.412.564-2.146 0l-10.214-7.844c-.734-.621-1.017-1.523-.566-2.086zm-8.747 11.34c-.449.566-.167 1.525.565 2.09l10.159 7.848c.733.561 1.747.619 2.143.053.452-.564.17-1.521-.563-2.086l-10.159-7.846c-.734-.624-1.748-.624-2.145-.059zm18.511 6.773l11.173 8.635 1.525-1.922-11.173-8.631-4.177-1.807 2.981-3.805-9.655-7.244-5.754 7.799 9.375 7.242 2.769-3.709 2.936 3.442zM27.823 9.538L37.2 16.87l.548-.842-9.367-7.281-.558.791z"></path></g><!----></svg>